<svg xmlns="http://www.w3.org/2000/svg" version="1.1" width="3300" height="2000"><g id="Notes"><style>
    text {
      font-family: monospace;
      text-anchor: middle;
    }
    text.emphasis {
      font-weight:bold;
    }
    text.lanchor {
      text-anchor: start;
    }
  </style><rect height="2200" id="artboard" fill="white" width="3300" x="0" y="0"/><line id="" style="fill:none;stroke:black;stroke-width:0.5;" x1="263" x2="3036" y1="292" y2="292"/><text class="lanchor emphasis" transform="matrix(1 0 0 1 263 322)">Weight/Scale Variations</text><text transform="matrix(1 0 0 1 559.711 322)">Ultralight</text><text transform="matrix(1 0 0 1 856.422 322)">Thin</text><text transform="matrix(1 0 0 1 1153.13 322)">Light</text><text transform="matrix(1 0 0 1 1449.84 322)">Regular</text><text transform="matrix(1 0 0 1 1746.56 322)">Medium</text><text transform="matrix(1 0 0 1 2043.27 322)">Semibold</text><text transform="matrix(1 0 0 1 2339.98 322)">Bold</text><text transform="matrix(1 0 0 1 2636.69 322)">Heavy</text><text transform="matrix(1 0 0 1 2933.4 322)">Black</text><text id="template-version" style="text-anchor: end;" transform="matrix(1 0 0 1 3036 1933)">Template v.1.0</text><text class="lanchor" transform="matrix(1 0 0 1 263 726)">Small</text><text class="lanchor" transform="matrix(1 0 0 1 263 1156)">Medium</text><text class="lanchor" transform="matrix(1 0 0 1 263 1586)">Large</text></g><g id="Guides"><g id="H-reference" style="fill:#27AAE1;stroke:none;" transform="matrix(1 0 0 1 339 696)"><path d="M 54.9316 0 L 57.666 0 L 30.5664 -70.459 L 28.0762 -70.459 L 0.976562 0 L 3.66211 0 L 12.9395 -24.4629 L 45.7031 -24.4629 Z M 29.1992 -67.0898 L 29.4434 -67.0898 L 44.8242 -26.709 L 13.8184 -26.709 Z"/></g><line id="Baseline-S" style="fill:none;stroke:#27AAE1;opacity:1;stroke-width:0.577;" x1="263" x2="3036" y1="696" y2="696"/><line id="Capline-S" style="fill:none;stroke:#27AAE1;opacity:1;stroke-width:0.577;" x1="263" x2="3036" y1="625.541" y2="625.541"/><g id="H-reference" style="fill:#27AAE1;stroke:none;" transform="matrix(1 0 0 1 339 1126)"><path d="M 54.9316 0 L 57.666 0 L 30.5664 -70.459 L 28.0762 -70.459 L 0.976562 0 L 3.66211 0 L 12.9395 -24.4629 L 45.7031 -24.4629 Z M 29.1992 -67.0898 L 29.4434 -67.0898 L 44.8242 -26.709 L 13.8184 -26.709 Z"/></g><line id="Baseline-M" style="fill:none;stroke:#27AAE1;opacity:1;stroke-width:0.577;" x1="263" x2="3036" y1="1126" y2="1126"/><line id="Capline-M" style="fill:none;stroke:#27AAE1;opacity:1;stroke-width:0.577;" x1="263" x2="3036" y1="1055.54" y2="1055.54"/><g id="H-reference" style="fill:#27AAE1;stroke:none;" transform="matrix(1 0 0 1 339 1556)"><path d="M 54.9316 0 L 57.666 0 L 30.5664 -70.459 L 28.0762 -70.459 L 0.976562 0 L 3.66211 0 L 12.9395 -24.4629 L 45.7031 -24.4629 Z M 29.1992 -67.0898 L 29.4434 -67.0898 L 44.8242 -26.709 L 13.8184 -26.709 Z"/></g><line id="Baseline-L" style="fill:none;stroke:#27AAE1;opacity:1;stroke-width:0.577;" x1="263" x2="3036" y1="1556" y2="1556"/><line id="Capline-L" style="fill:none;stroke:#27AAE1;opacity:1;stroke-width:0.577;" x1="263" x2="3036" y1="1485.54" y2="1485.54"/><rect height="119.336" id="left-margin" style="fill:darkred;stroke:none;opacity:0.4;" width="12.4512" x="1394.06" y="1030.79"/><rect height="119.336" id="right-margin" style="fill:darkgreen;stroke:none;opacity:0.4;" width="12.4512" x="1502.5112" y="1030.79"/><rect x="1406.5112" y="1045" width="96" height="96" fill="none" stroke="blue" stroke-dasharray="5"/><rect x="1394.06" y="1030.79" width="120.9024" height="119.336" fill="none" stroke="blue"/></g><g id="Symbols"><g id="Bold-L" transform="matrix(1 0 0 1 2266 1556)"><path d="M31.605 37.655  43.699 -14.59  3.064 -49.742  56.599 -54.257  77.4 -103.6  98.201 -54.257  151.736 -49.742  111.101 -14.59  123.356 37.655  77.4 9.759  31.605 37.655 Z"/></g><g id="Semibold-L" transform="matrix(1 0 0 1 1970.27 1556)"><path d="M34.199 34.01  45.592 -15.221  7.34 -48.34  57.791 -52.645  77.4 -99.113  97.009 -52.645  147.46 -48.34  109.208 -15.221  120.692 34.01  77.4 7.796  34.199 34.01 Z"/></g><g id="Medium-L" transform="matrix(1 0 0 1 1674.31 1556)"><path d="M36.145 31.275  47.011 -15.694  10.548 -47.289  58.685 -51.436  77.4 -95.748  96.115 -51.436  144.252 -47.289  107.789 -15.694  118.694 31.275  77.4 6.323  36.145 31.275 Z"/></g><g id="Regular-L" transform="matrix(1 0 0 1 1378.56 1556)"><path d="M37.571 29.27  48.053 -16.041  12.9 -46.517  59.34 -50.549  77.4 -93.28  95.46 -50.549  141.9 -46.517  106.748 -16.041  117.229 29.27  77.4 5.244  37.571 29.27 Z"/></g><g id="Light-L" transform="matrix(1 0 0 1 1082.77 1556)"><path d="M42.409 22.571  51.65 -17.22  20.777 -43.975  61.511 -47.51  77.4 -85.031  93.289 -47.51  134.023 -43.975  103.15 -17.22  112.391 22.571  77.4 1.46  42.409 22.571 Z"/></g><g id="Thin-L" transform="matrix(1 0 0 1 787.282 1556)"><path d="M47.246 15.874  55.247 -18.398  28.653 -41.432  63.681 -44.471  77.4 -76.783  91.119 -44.471  126.147 -41.432  99.553 -18.398  107.554 15.874  77.4 -2.323  47.246 15.874 Z"/></g><g id="Ultralight-L" transform="matrix(1 0 0 1 491.205 1556)"><path d="M50.149 11.855  57.405 -19.105  33.379 -39.906  64.984 -42.647  77.4 -71.834  89.816 -42.647  121.421 -39.906  97.395 -19.105  104.651 11.855  77.4 -4.592  50.149 11.855 Z"/></g><g id="Bold-M" transform="matrix(1 0 0 1 2281.8 1126)"><path d="M22.875 23.395  32.75 -18.855  -0.125 -47.355  43.125 -50.98  60 -90.855  76.875 -50.98  120.125 -47.355  87.25 -18.855  97.125 23.395  60 0.895  22.875 23.395 Z"/></g><g id="Semibold-M" transform="matrix(1 0 0 1 1985.97 1126)"><path d="M25.592 19.645  34.706 -19.507  4.277 -45.888  44.375 -49.295  60 -86.236  75.625 -49.295  115.723 -45.888  85.294 -19.507  94.408 19.645  60 -1.17  25.592 19.645 Z"/></g><g id="Medium-M" transform="matrix(1 0 0 1 1689.91 1126)"><path d="M27.63 16.833  36.174 -19.996  7.579 -44.787  45.312 -48.032  60 -82.771  74.688 -48.032  112.421 -44.787  83.826 -19.996  92.37 16.833  60 -2.719  27.63 16.833 Z"/></g><g id="Regular-M" transform="matrix(1 0 0 1 1394.06 1126)"><path d="M29.125 14.77  37.25 -20.355  10 -43.98  46 -47.105  60 -80.23  74 -47.105  110 -43.98  82.75 -20.355  90.875 14.77  60 -3.855  29.125 14.77 Z"/></g><g id="Light-M" transform="matrix(1 0 0 1 1098.18 1126)"><path d="M32.875 9.577  40.039 -21.268  16.106 -42.009  47.683 -44.749  60 -73.835  72.317 -44.749  103.894 -42.009  79.961 -21.268  87.125 9.577  60 -6.788  32.875 9.577 Z"/></g><g id="Thin-M" transform="matrix(1 0 0 1 802.565 1126)"><path d="M36.625 4.386  42.827 -22.182  22.212 -40.038  49.365 -42.393  60 -67.442  70.635 -42.393  97.788 -40.038  77.173 -22.182  83.375 4.386  60 -9.72  36.625 4.386 Z"/></g><g id="Ultralight-M" transform="matrix(1 0 0 1 506.415 1126)"><path d="M38.875 1.27  44.5 -22.73  25.875 -38.855  50.375 -40.98  60 -63.605  69.625 -40.98  94.125 -38.855  75.5 -22.73  81.125 1.27  60 -11.48  38.875 1.27 Z"/></g><g id="Bold-S" transform="matrix(1 0 0 1 2294.23 696)"><path d="M19.035 9.447  26.629 -22.409  1.479 -43.909  34.42 -46.67  47.34 -76.751  60.26 -46.572  93.201 -43.909  68.051 -22.409  75.645 9.447  47.34 -7.516  19.035 9.447 Z"/></g><g id="Semibold-S" transform="matrix(1 0 0 1 1998.1 696)"><path d="M21.179 6.489  28.172 -22.923  4.952 -42.751  35.406 -45.341  47.34 -73.107  59.274 -45.243  89.728 -42.751  66.508 -22.923  73.501 6.489  47.34 -9.146  21.179 6.489 Z"/></g><g id="Medium-S" transform="matrix(1 0 0 1 1701.85 696)"><path d="M22.787 4.269  29.33 -23.309  7.558 -41.883  36.146 -44.344  47.34 -70.373  58.534 -44.246  87.122 -41.883  65.35 -23.309  71.893 4.269  47.34 -10.368  22.787 4.269 Z"/></g><g id="Regular-S" transform="matrix(1 0 0 1 1405.73 696)"><path d="M23.966 2.642  30.179 -23.592  9.468 -41.246  36.689 -43.613  47.34 -68.368  57.992 -43.514  85.212 -41.246  64.501 -23.592  70.714 2.642  47.34 -11.264  23.966 2.642 Z"/></g><g id="Light-S" transform="matrix(1 0 0 1 1109.75 696)"><path d="M26.925 -1.455  32.379 -24.313  14.286 -39.691  38.016 -41.754  47.34 -63.323  56.664 -41.656  80.394 -39.691  62.301 -24.313  67.755 -1.455  47.34 -13.578  26.925 -1.455 Z"/></g><g id="Thin-S" transform="matrix(1 0 0 1 814.015 696)"><path d="M29.883 -5.551  34.579 -25.034  19.103 -38.136  39.344 -39.896  47.34 -58.278  55.336 -39.797  75.577 -38.136  60.101 -25.034  64.797 -5.551  47.34 -15.892  29.883 -5.551 Z"/></g><g id="Ultralight-S" transform="matrix(1 0 0 1 517.792 696)"><path d="M31.659 -8.009  35.9 -25.466  21.993 -37.202  40.14 -38.78  47.34 -55.251  54.54 -38.682  72.687 -37.202  58.781 -25.466  63.021 -8.009  47.34 -17.28  31.659 -8.009 Z"/></g></g></svg>